#!OML:ASF E:\inclinewalkrobotboard\Project 1\Capture day 1\Session 1\subject1.ASF
:FULLY-SPECIFIED
:DEGREES
80
root 9.4842 16.6486 18.0886 -166.668 -9.95397 179.099
lowerback -9.98 6.5856 -5.16029
upperback 0.56728 9.35879 0.0465993
thorax 5.31877 4.45794 4.18421
lowerneck -0.976558 16.6524 2.39969
upperneck 13.0486 22.0098 0.1167
head 4.82675 10.8476 0.672888
rclavicle -8.73162e-014 -3.18055e-015
rhumerus -44.6286 -28.518 -70.1579
rradius 33.2105
rwrist 12.9759
rhand -19.3588 -37.2504
rfingers 7.12502
rthumb 6.95879 -67.116
lclavicle -8.73162e-014 -3.18055e-015
lhumerus -27.8736 5.10901 85.7808
lradius 15.2922
lwrist -29.1379
lhand -29.8582 -18.367
lfingers 7.12502
lthumb -3.18049 11.589
rfemur -7.30304 -1.76418 21.5379
rtibia 7.76987
rfoot -18.5087 -13.7981
rtoes -15.0946
lfemur -14.8475 -11.4859 -19.8031
ltibia 9.5048
lfoot -5.85755 -8.90558
ltoes -50.2127
81
root 9.47593 16.6471 18.0911 -166.639 -9.73539 179.16
lowerback -10.0666 6.45391 -5.19637
upperback 0.586396 9.18982 0.113323
thorax 5.38751 4.36931 4.26681
lowerneck -0.604254 16.1077 2.72899
upperneck 12.5563 21.3179 -0.386405
head 4.67028 10.5097 0.380748
rclavicle 3.98066e-014 0
rhumerus -44.548 -28.4571 -70.0946
rradius 32.9743
rwrist 13.0564
rhand -19.064 -37.3682
rfingers 7.12502
rthumb 7.24338 -67.2242
lclavicle 3.98066e-014 0
lhumerus -27.7878 5.47987 85.8183
lradius 15.4047
lwrist -29.1712
lhand -29.9137 -18.3452
lfingers 7.12502
lthumb -3.23412 11.61
rfemur -7.42686 -1.63949 21.5479
rtibia 7.86495
rfoot -18.5054 -13.7023
rtoes -15.0716
lfemur -14.8998 -11.2217 -19.77
ltibia 9.54348
lfoot -5.91727 -8.89479
ltoes -50.2353
82
root 9.46578 16.6451 18.0921 -166.648 -9.56521 179.252
lowerback -10.1115 6.33369 -5.1517
upperback 0.558248 9.02202 0.164922
thorax 5.39802 4.28687 4.28099
lowerneck -1.71364 15.8131 2.32159
upperneck 14.1504 20.84 0.364718
head 4.76786 10.2541 0.742074
rclavicle -6.65929e-014 0
rhumerus -44.6666 -28.6316 -69.8641
rradius 32.7044
rwrist 13.451
rhand -18.8373 -37.5435
rfingers 7.12502
rthumb 7.46215 -67.3919
lclavicle -6.65929e-014 0
lhumerus -27.7666 5.53524 85.9319
lradius 15.5022
lwrist -28.9687
lhand -29.923 -18.4554
lfingers 7.12502
lthumb -3.24311 11.4997
rfemur -7.46539 -1.58884 21.5869
rtibia 7.89702
rfoot -18.4782 -13.5999
rtoes -15.296
lfemur -14.8895 -11.0398 -19.7121
ltibia 9.51954
lfoot -5.99986 -8.88238
ltoes -50.2024
83
root 9.45467 16.6452 18.0938 -166.702 -9.3885 179.353
lowerback -10.0705 6.1997 -5.09692
upperback 0.497545 8.8283 0.212829
thorax 5.33063 4.19603 4.26859
lowerneck -1.9027 15.2937 2.13485
upperneck 14.4094 20.0953 0.69289
head 4.81547 9.88633 0.84215
rclavicle 8.33902e-014 7.95139e-016
rhumerus -44.8271 -28.7803 -69.623
rradius 32.4241
rwrist 13.8081
rhand -18.7376 -37.6451
rfingers 7.12502
rthumb 7.5584 -67.4901
lclavicle 8.33902e-014 7.95139e-016
lhumerus -27.866 5.38428 86.1092
lradius 15.7006
lwrist -28.6123
lhand -29.8738 -18.3795
lfingers 7.12502
lthumb -3.1956 11.5763
rfemur -7.43029 -1.56174 21.6256
rtibia 7.87204
rfoot -18.3975 -13.4572
rtoes -15.4412
lfemur -14.8042 -10.967 -19.6538
ltibia 9.48454
lfoot -6.11269 -8.79273
ltoes -50.2296
84
root 9.44363 16.646 18.0959 -166.717 -9.13728 179.408
lowerback -10.1127 6.0501 -5.12776
upperback 0.461282 8.63035 0.249271
thorax 5.32561 4.09734 4.3028
lowerneck -1.89929 14.7815 1.91941
upperneck 14.5723 19.3597 1.00962
head 4.80445 9.52316 0.923369
rclavicle -2.44008e-014 1.19271e-015
rhumerus -44.8456 -28.8259 -69.465
rradius 32.1243
rwrist 13.9899
rhand -18.5791 -37.9422
rfingers 7.12502
rthumb 7.71138 -67.7816
lclavicle -2.44008e-014 1.19271e-015
lhumerus -27.8856 5.63831 86.1498
lradius 15.8149
lwrist -28.6338
lhand -29.9652 -18.1673
lfingers 7.12502
lthumb -3.28382 11.7871
rfemur -7.45742 -1.4659 21.608
rtibia 7.87647
rfoot -18.3282 -13.299
rtoes -15.3743
lfemur -14.7554 -10.9191 -19.6507
ltibia 9.50281
lfoot -6.2496 -8.61077
ltoes -50.3047
85
root 9.43143 16.6461 18.0961 -166.767 -8.85731 179.457
lowerback -10.1941 5.91481 -5.16916
upperback 0.45853 8.45749 0.276204
thorax 5.37586 4.00798 4.34333
lowerneck -2.43171 13.9834 1.41125
upperneck 15.1 18.2116 1.63417
head 4.93846 8.95075 1.16836
rclavicle -3.92103e-014 -1.27222e-014
rhumerus -44.8362 -28.9164 -69.2748
rradius 31.7381
rwrist 14.2116
rhand -18.4723 -37.9353
rfingers 7.12502
rthumb 7.8145 -67.7708
lclavicle -3.92103e-014 -1.27222e-014
lhumerus -27.8155 6.22784 86.0347
lradius 15.8266
lwrist -29.1395
lhand -30.1824 -18.4013
lfingers 7.12502
lthumb -3.49356 11.5498
rfemur -7.46816 -1.41166 21.5751
rtibia 7.92741
rfoot -18.2787 -13.1131
rtoes -15.7283
lfemur -14.6536 -10.8381 -19.6772
ltibia 9.49294
lfoot -6.35413 -8.41768
ltoes -50.3502
86
root 9.41928 16.6474 18.0993 -166.857 -8.53 179.501
lowerback -10.1922 5.75459 -5.22234
upperback 0.430862 8.24774 0.289899
thorax 5.35769 3.9038 4.35951
lowerneck -2.90127 13.0682 1.05182
upperneck 15.7129 16.8933 2.18463
head 5.12255 8.29538 1.36624
rclavicle -1.94809e-014 -5.56597e-015
rhumerus -44.8587 -28.9239 -69.1317
rradius 31.3642
rwrist 14.4932
rhand -18.4864 -37.6883
rfingers 7.12502
rthumb 7.80091 -67.5244
lclavicle -1.94809e-014 -5.56597e-015
lhumerus -27.823 6.50084 86.0149
lradius 15.9556
lwrist -29.3448
lhand -30.4914 -18.7186
lfingers 7.12502
lthumb -3.79197 11.2274
rfemur -7.48664 -1.44143 21.5271
rtibia 8.0608
rfoot -18.2182 -12.8524
rtoes -16.6104
lfemur -14.5008 -10.7194 -19.714
ltibia 9.43095
lfoot -6.46396 -8.24093
ltoes -50.3064
87
root 9.40915 16.6482 18.1066 -166.905 -8.17557 179.56
lowerback -10.2039 5.53275 -5.28579
upperback 0.396691 7.95661 0.317989
thorax 5.34578 3.75874 4.38797
lowerneck -2.63824 11.9568 1.07214
upperneck 15.634 15.3512 2.24958
head 5.05544 7.53453 1.28187
rclavicle -2.93704e-014 -1.11319e-014
rhumerus -44.7615 -28.8429 -69.0745
rradius 31.0211
rwrist 14.7886
rhand -18.3883 -37.7572
rfingers 7.12502
rthumb 7.89559 -67.5897
lclavicle -2.93704e-014 -1.11319e-014
lhumerus -27.8931 6.61583 86.0933
lradius 16.1266
lwrist -29.0897
lhand -30.9194 -18.6323
lfingers 7.12502
lthumb -4.20531 11.3059
rfemur -7.58947 -1.43382 21.5075
rtibia 8.23054
rfoot -18.1365 -12.6038
rtoes -17.4401
lfemur -14.4297 -10.5758 -19.7095
ltibia 9.40515
lfoot -6.57731 -8.09393
ltoes -50.2107
88
root 9.40034 16.647 18.1133 -166.973 -7.85009 179.651
lowerback -10.2579 5.30367 -5.34234
upperback 0.42485 7.6592 0.387799
thorax 5.4203 3.60608 4.46478
lowerneck -3.35227 10.9422 0.291051
upperneck 16.4432 13.8793 3.05463
head 5.313 6.79487 1.62887
rclavicle 3.28492e-014 7.95139e-016
rhumerus -44.589 -28.8381 -68.9473
rradius 30.721
rwrist 15.0895
rhand -18.3701 -37.8257
rfingers 7.12502
rthumb 7.91309 -67.6576
lclavicle 3.28492e-014 7.95139e-016
lhumerus -27.9229 6.85767 86.1598
lradius 16.2405
lwrist -28.853
lhand -31.2107 -18.4906
lfingers 7.12502
lthumb -4.48663 11.4418
rfemur -7.66442 -1.3238 21.5376
rtibia 8.3867
rfoot -18.0769 -12.4266
rtoes -17.6305
lfemur -14.3599 -10.4465 -19.658
ltibia 9.42065
lfoot -6.69598 -7.96264
ltoes -50.2059
89
root 9.39429 16.648 18.1189 -167.073 -7.51293 179.732
lowerback -10.2412 5.05735 -5.46881
upperback 0.44421 7.3419 0.47678
thorax 5.4382 3.44429 4.58812
lowerneck -3.40095 9.77307 0.110964
upperneck 16.6345 12.2736 3.05774
head 5.38793 5.98257 1.58341
rclavicle 1.20364e-013 -1.98785e-015
rhumerus -44.4429 -28.8236 -68.7705
rradius 30.4777
rwrist 15.2275
rhand -18.3876 -37.5726
rfingers 7.12502
rthumb 7.89625 -67.4051
lclavicle 1.20364e-013 -1.98785e-015
lhumerus -27.9892 6.96319 86.2551
lradius 16.3864
lwrist -28.5188
lhand -31.4583 -18.65
lfingers 7.12502
lthumb -4.72572 11.2773
rfemur -7.72068 -1.12262 21.5711
rtibia 8.58114
rfoot -18.086 -12.2986
rtoes -17.4986
lfemur -14.2537 -10.3034 -19.5999
ltibia 9.44992
lfoot -6.85782 -7.85285
ltoes -50.2418
